name symmetric_stride_kinematics_HTD_Minus_2.mot
datacolumns 38
datarows 7
range 0.00000000 0.00668142
endheader
                time	/jointset/ground_pelvis/pelvis_tilt/value	/jointset/ground_pelvis/pelvis_list/value	/jointset/ground_pelvis/pelvis_rotation/value	/jointset/ground_pelvis/pelvis_tx/value	/jointset/ground_pelvis/pelvis_ty/value	/jointset/ground_pelvis/pelvis_tz/value	/jointset/hip_r/hip_flexion_r/value	/jointset/hip_r/hip_adduction_r/value	/jointset/hip_r/hip_rotation_r/value	/jointset/knee_r/knee_angle_r/value	/jointset/ankle_r/ankle_angle_r/value	/jointset/subtalar_r/subtalar_angle_r/value	/jointset/mtp_r/mtp_angle_r/value	/jointset/hip_l/hip_flexion_l/value	/jointset/hip_l/hip_adduction_l/value	/jointset/hip_l/hip_rotation_l/value	/jointset/knee_l/knee_angle_l/value	/jointset/ankle_l/ankle_angle_l/value	/jointset/subtalar_l/subtalar_angle_l/value	/jointset/mtp_l/mtp_angle_l/value	/jointset/back/lumbar_extension/value	/jointset/back/lumbar_bending/value	/jointset/back/lumbar_rotation/value	/jointset/acromial_r/arm_flex_r/value	/jointset/acromial_r/arm_add_r/value	/jointset/acromial_r/arm_rot_r/value	/jointset/elbow_r/elbow_flex_r/value	/jointset/radioulnar_r/pro_sup_r/value	/jointset/radius_hand_r/wrist_flex_r/value	/jointset/radius_hand_r/wrist_dev_r/value	/jointset/acromial_l/arm_flex_l/value	/jointset/acromial_l/arm_add_l/value	/jointset/acromial_l/arm_rot_l/value	/jointset/elbow_l/elbow_flex_l/value	/jointset/radioulnar_l/pro_sup_l/value	/jointset/radius_hand_l/wrist_flex_l/value	/jointset/radius_hand_l/wrist_dev_l/value	
          0.00000000	         -8.30806278	         -3.39145474	         -5.97157847	          0.00000000	          0.99520911	          0.30359644	         35.06887046	          2.86584297	          0.41335909	        -18.26429975	        -21.13472763	        -12.27936416	          6.55308568	         30.99637474	        -12.29253961	          3.44195052	       -118.53295332	         -5.45882029	        -16.99420481	         -3.54914029	        -18.63238132	          7.52389493	         -4.45239065	         -6.09382105	        -24.64959816	        -14.06151972	        109.43689632	         80.50934417	        -23.37887872	          5.83500747	         -0.45028262	        -19.25387146	        -13.54317553	         73.51448874	         54.95160605	         -1.06665943	          5.83324920	
          0.00062978	         -8.39062989	         -3.33871824	         -6.22662110	          0.00740136	          0.99472151	          0.30385607	         34.76203265	          2.95053938	          0.40742943	        -18.06202696	        -20.68585785	        -12.06950638	          6.23741859	         31.43524972	        -12.38527018	          3.34755422	       -118.84887536	         -5.23437594	        -17.01329339	         -3.13114589	        -18.50866683	          7.43427762	         -4.23621998	         -5.15638994	        -24.51957348	        -14.00113609	        109.83263582	         80.22951602	        -23.27926184	          5.91038195	         -0.90235735	        -19.02086319	        -13.35157331	         73.39033070	         55.32392428	         -1.14295669	          5.89325916	
          0.00261964	         -8.65062714	         -3.15819835	         -7.04968865	          0.03082034	          0.99309561	          0.30468900	         33.78128138	          3.20746340	          0.47208632	        -17.44523984	        -19.08761115	        -11.52350338	          5.27296588	         32.82286917	        -12.69444108	          3.04126779	       -119.83170784	         -4.53690949	        -17.06268243	         -1.94377799	        -18.10604515	          7.14118145	         -3.52383154	         -2.19693236	        -24.07814891	        -13.82724548	        111.06727714	         79.47413917	        -22.97857315	          6.10572940	         -2.34358101	        -18.28364380	        -12.68301768	         73.06945595	         56.40988753	         -1.36212978	          6.12703500	
          0.00406178	         -8.83708083	         -3.01258390	         -7.66012590	          0.04782472	          0.99183909	          0.30529887	         33.06120112	          3.37789987	          0.59403986	        -17.03240800	        -17.78996425	        -11.25644792	          4.68576516	         33.82887392	        -12.93071034	          2.81239144	       -120.52875453	         -4.04492520	        -17.09682085	         -1.20615959	        -17.80379522	          6.91876749	         -2.98235546	         -0.05565953	        -23.73402525	        -13.71478538	        111.95101763	         78.99710638	        -22.76539063	          6.22550866	         -3.40163578	        -17.74863617	        -12.14130602	         72.90189520	         57.16460440	         -1.50879495	          6.31696619	
          0.00406178	         -8.83708083	         -3.01258390	         -7.66012590	          0.04782472	          0.99183909	          0.30529887	         33.06120112	          3.37789987	          0.59403986	        -17.03240800	        -17.78996425	        -11.25644792	          4.68576516	         33.82887392	        -12.93071034	          2.81239144	       -120.52875453	         -4.04492520	        -17.09682085	         -1.20615959	        -17.80379522	          6.91876749	         -2.98235546	         -0.05565953	        -23.73402525	        -13.71478538	        111.95101763	         78.99710638	        -22.76539063	          6.22550866	         -3.40163578	        -17.74863617	        -12.14130602	         72.90189520	         57.16460440	         -1.50879495	          6.31696619	
          0.00469156	         -8.91789075	         -2.94493508	         -7.92970100	          0.05525855	          0.99127046	          0.30556538	         32.74479371	          3.44693177	          0.66556732	        -16.86397601	        -17.20440715	        -11.18086973	          4.47523044	         34.26844545	        -13.03649136	          2.71103953	       -120.82902403	         -3.83375374	        -17.11292090	         -0.92127105	        -17.66908571	          6.81910976	         -2.73996588	          0.87819708	        -23.57873958	        -13.66819106	        112.33470822	         78.80204974	        -22.67183363	          6.27517027	         -3.86774237	        -17.51491843	        -11.89034607	         72.84548682	         57.49663024	         -1.57168117	          6.39957198	
          0.00668142	         -9.16939945	         -2.71058848	         -8.79327072	          0.07877766	          0.98939669	          0.30640485	         31.74201676	          3.63581733	          0.96067805	        -16.40814032	        -15.22736468	        -11.05382835	          3.97956037	         35.65621845	        -13.37674302	          2.38130614	       -121.75966653	         -3.18723978	        -17.18429586	         -0.04880031	        -17.23327481	          6.49009998	         -1.95117105	          3.82044418	        -23.06946715	        -13.53283241	        113.53850603	         78.29878540	        -22.37503693	          6.39964220	         -5.35935887	        -16.77638896	        -11.04946124	         72.73659788	         58.52518821	         -1.76882963	          6.66279077	
